<?xml version="1.0" encoding="iso-8859-1"?>
<!-- Generator: Adobe Illustrator 19.0.0, SVG Export Plug-In . SVG Version: 6.00 Build 0)  -->
<svg version="1.1" id="Capa_1" xmlns="http://www.w3.org/2000/svg" xmlns:xlink="http://www.w3.org/1999/xlink" x="0px" y="0px"
	 viewBox="0 0 496.689 496.689" style="enable-background:new 0 0 496.689 496.689;" xml:space="preserve">
<g transform="matrix(1.25 0 0 -1.25 0 45)">
	<g>
		<g>
			<g>
				<path style="fill:#292F33;" d="M225.142-356.663c-1.752,2.162-2.833,4.927-2.833,7.942c-0.046,7.02,5.609,12.72,12.618,12.754
					l36.068,0.182c6.997,0.011,12.709-5.598,12.732-12.618c0.046-7.031-5.586-12.732-12.607-12.754l-36.056-0.193
					C231.07-361.362,227.486-359.542,225.142-356.663"/>
				<path style="fill:#292F33;" d="M60.096-356.663c-1.752,2.162-2.822,4.927-2.822,7.942c-0.046,7.02,5.609,12.72,12.618,12.754
					l36.068,0.182c6.975,0.011,12.709-5.598,12.732-12.618c0.046-7.031-5.598-12.732-12.618-12.754l-36.056-0.193
					C66.024-361.362,62.462-359.542,60.096-356.663"/>
			</g>
			<path style="fill:#F7DECE;" d="M297.095-53.4c-4.813,3.982-6.087,10.968-2.731,16.395l25.566,18.546
				c5.677,4.13,13.608,2.867,17.761-2.799c4.062-5.7,2.822-13.596-2.833-17.727l-18.853-11.287
				c-3.675-5.962-11.492-7.851-17.465-4.187C298.016-54.117,297.527-53.787,297.095-53.4"/>
			<path style="fill:#292F33;" d="M302.761-26.787l-46.012-29.355l-57.788-4.881c0,0-77.619-9.728-102.946-16.748
				c-43.44-12.038-21.902-45.409-21.902-45.409l29.4-47.411l15.041,19.604l-19.752,42.189l55.421,10.32l45.522-6.19l75.253,19.957
				l44.43,31.346L302.761-26.787z"/>
			<path style="fill:#F7DECE;" d="M208.189-11.837c0,21.026-14.905,38.081-33.303,38.081c-18.409,0-33.326-17.055-33.326-38.081
				c0-16.304,9-30.106,21.595-35.533l2.879-28.422c0.705-6.975,6.918-12.06,13.915-11.344c6.975,0.694,12.038,6.929,11.344,13.892
				l-2.708,26.761C200.122-40.497,208.189-27.276,208.189-11.837"/>
			<path style="fill:#292F33;" d="M192.783,14.093c0,0-12.971-12.174-26.726-14.279c0,0-8.226-13.335-8.738-21.026
				c0,0-5.12,12.299-9.216,10.24c-4.096-2.037-5.632-9.728-2.048-14.837c3.584-5.131,8.021-13.949,4.13-11.412
				c-7.839,5.12-8.988,8.727-11.105,12.174c-1.434,2.344-4.836,10.718-5.291,24.587c-0.262,8.203,2.651,24.075,19.433,32.506
				c14.541,7.327,37.399,3.595,48.139-4.085c10.752-7.691,13.426-27.09,6.758-34.77c0,0-0.967,7.168-5.564,12.971
				C199.997,9.383,192.783,14.093,192.783,14.093"/>
			<path style="fill:#DD2E44;" d="M130.41-70.74c0,0,2.924-44.988-3.3-94.891c11.014,0.102,83.888,0.273,83.888,0.273
				s13.153,23.12,11.31,47.923c-1.832,24.815-11.822,54.784-11.822,54.784l-12.311,1.229l-2.412,11.503l-12.015-4.551l-1.718-19.911
				l-5.188,18.944L159.242-53.9l-2.105-12.129L130.41-70.74z"/>
			<g>
				<path style="fill:#292F33;" d="M123.288-72.105c0,0,7.839-27.796,4.38-85.333c25.35,0.432,45.102,8.329,45.102,8.329
					s1.661,21.834-2.594,41.131c-6.212,28.092-12.572,44.624-12.572,44.624L123.288-72.105z"/>
				<path style="fill:#292F33;" d="M197.426-57.928c0,0,7.088-37.217,5.507-59.438s-2.674-30.652-2.674-30.652
					s3.982-3.652,16.828-3.425c5.302,13.904,9.58,39.982,8.943,57.094c-0.683,18.034-11.401,35.59-11.401,35.59L197.426-57.928z"/>
				<path style="fill:#292F33;" d="M127.111-165.619c0,0-7.76-63.898-16.213-81.055c-8.988-29.355-51.655-95.221-51.655-95.221
					l28.752-6.656c0,0,48.902,52.793,61.781,74.889c13.79,24.86,25.031,62.703,25.031,62.703s29.309-25.782,42.405-45.033
					c8.283-22.79,5.109-92.706,5.109-92.706l34.452,0.148c0,0,17.579,72.42,3.277,108.942
					c-6.861,17.727-49.038,74.263-49.038,74.263L127.111-165.619z"/>
			</g>
			<path style="fill:#F7DECE;" d="M144.405-179.705c-3.072-5.416-9.717-7.873-15.656-5.541l-25.236,14.666l15.041,19.604
				l19.49-10.638c6.519-2.583,9.717-9.933,7.157-16.464C144.974-178.658,144.712-179.193,144.405-179.705"/>
		</g>
	</g>
</g>
<g>
</g>
<g>
</g>
<g>
</g>
<g>
</g>
<g>
</g>
<g>
</g>
<g>
</g>
<g>
</g>
<g>
</g>
<g>
</g>
<g>
</g>
<g>
</g>
<g>
</g>
<g>
</g>
<g>
</g>
</svg>
