<?xml version="1.0" encoding="iso-8859-1"?>
<!-- Generator: Adobe Illustrator 16.0.0, SVG Export Plug-In . SVG Version: 6.00 Build 0)  -->
<!DOCTYPE svg PUBLIC "-//W3C//DTD SVG 1.1//EN" "http://www.w3.org/Graphics/SVG/1.1/DTD/svg11.dtd">
<svg version="1.1" id="Capa_1" xmlns="http://www.w3.org/2000/svg" xmlns:xlink="http://www.w3.org/1999/xlink" x="0px" y="0px"
	 width="957.9px" height="957.9px" viewBox="0 0 957.9 957.9" style="enable-background:new 0 0 957.9 957.9;" xml:space="preserve"
	>
<g>
	<g>
		<path d="M701.3,111.6V84c0-27.6-22.399-50-50-50H129.9c-27.6,0-50,22.4-50,50v27.6c0,27.6,22.4,50,50,50H651.3
			C678.9,161.6,701.3,139.2,701.3,111.6z"/>
		<path d="M621.5,290.6V263c0-27.6-22.399-50-50-50H50c-27.6,0-50,22.4-50,50v27.6c0,27.6,22.4,50,50,50h521.4
			C599.101,340.6,621.5,318.2,621.5,290.6z"/>
		<path d="M463.9,429.6c15.5-15.5,32.399-29.1,50.5-40.8H50c-27.6,0-50,22.4-50,50V466.4c0,27.6,22.4,50,50,50h353
			C418.101,484.1,438.601,455,463.9,429.6z"/>
		<path d="M129.9,564.5c-27.6,0-50,22.4-50,50v27.6c0,27.601,22.4,50,50,50H377.3C375.101,677.2,374,662,374,646.7
			c0-28.101,3.7-55.601,11.101-82.2H129.9L129.9,564.5z"/>
		<path d="M471.5,871.1c-2.5-2.399-5.1-4.8-7.6-7.3c-28.2-28.2-50.3-61-65.8-97.6c-3.2-7.5-6-15.101-8.601-22.7H50
			c-27.6,0-50,22.4-50,50v27.6c0,27.601,22.4,50,50,50H471.5z"/>
		<path d="M681,369.7c-36.2,0-70.8,7-102.5,19.6c-61,24.3-111.3,69.601-142,127.101c-8.2,15.3-14.899,31.399-20.2,48.199
			c-8.1,26-12.399,53.601-12.399,82.2c0,15.5,1.3,30.601,3.7,45.4c2.899,17.8,7.5,35,13.699,51.399
			C440.5,795.1,474.7,839.4,518.4,871.2c45.6,33.1,101.8,52.7,162.5,52.7c153,0,277-124,277-277C958,493.7,834,369.7,681,369.7z
			 M798.7,528.4l-74.6,117h25.1c13.8,0,25,11.199,25,25c0,13.8-11.2,25-25,25h-43.1V713h43.1c13.8,0,25,11.2,25,25s-11.2,25-25,25
			h-43.1v34.9c0,13.8-11.2,25-25,25c-13.801,0-25-11.2-25-25V763H613c-0.6,0-1.2,0-1.8-0.1c-9.9-0.7-18.2-7.2-21.6-16.101
			c-1-2.7-1.601-5.7-1.601-8.8c0-13.8,11.2-25,25-25h43.101v-17.5H613c-4.6,0-8.899-1.2-12.5-3.4c-7.399-4.3-12.5-12.399-12.5-21.6
			c0-13.8,11.2-25,25-25h25.101l-51.801-81l-23-36.1c-2.399-3.801-3.699-7.9-3.899-12.101c-0.5-8.7,3.6-17.399,11.5-22.399
			c11.6-7.4,27.1-4,34.5,7.6l0.6,0.9l39.601,62.1L681,620l16.2-25.4l59.4-93.1c7.399-11.6,22.899-15.1,34.5-7.6
			C802.7,501.3,806.101,516.8,798.7,528.4z"/>
	</g>
</g>
<g>
</g>
<g>
</g>
<g>
</g>
<g>
</g>
<g>
</g>
<g>
</g>
<g>
</g>
<g>
</g>
<g>
</g>
<g>
</g>
<g>
</g>
<g>
</g>
<g>
</g>
<g>
</g>
<g>
</g>
</svg>
